<svg xmlns="http://www.w3.org/2000/svg" width="192.304" height="412" viewBox="0 0 192.30438 412.00034"><path d="M63.372 21.226C79.438 5.928 102.29.761 123.847.117c22.799-.205 45.589-.08 68.388-.072.09 24.051.098 48.111-.009 72.161-14.734-.026-29.478.036-44.212-.026-9.343-.582-18.937 6.5-20.635 15.762-.224 16.093-.081 32.195-.072 48.29 21.61.088 43.22-.028 64.829.053-1.582 23.281-4.47 46.456-7.858 69.541-19.088.18-38.187-.018-57.274.1-.17 68.664.089 137.33-.134 205.994-28.352.116-56.721-.054-85.072.08-.537-68.674.044-137.383-.295-206.066-13.832-.144-27.672.1-41.503-.116.053-23.085.018-46.169.026-69.246 13.822-.169 27.654.036 41.477-.098.42-22.442-.421-44.91.438-67.333 1.386-17.758 8.154-35.649 21.431-47.915z" fill="#241c18"/></svg>