<svg width="44" height="59pt" viewBox="0 0 33 59" xmlns="http://www.w3.org/2000/svg"><path fill="#fff" d="M0 0h23.47c-4.49.09-9.24 1.89-11.66 5.86-3.01 4.52-2.4 10.19-2.45 15.34-2.87 0-5.74.03-8.62.03-.23 4-.14 8-.09 12 2.9.18 5.8.25 8.7.16.17 8.53-.35 17.09.28 25.61H0V0z"/><path fill="#241c18" d="M23.47 0h8.83c.13 3.74.11 7.49.07 11.23-2.81.4-5.66.19-8.49.41-3.36 1.76-1.73 6.49-2.12 9.57 3.47.02 6.98-.23 10.43.36-.62 3.81 1.26 8.48-1.01 11.74-3.13.23-6.28.07-9.42.12-.15 8.52.34 17.07-.26 25.57H9.63c-.63-8.52-.11-17.08-.28-25.61-2.9.09-5.8.02-8.7-.16-.05-4-.14-8 .09-12 2.88 0 5.75-.03 8.62-.03.05-5.15-.56-10.82 2.45-15.34C14.23 1.89 18.98.09 23.47 0z"/><path fill="#fff" d="M32.3 0h.7v59H21.5c.6-8.5.11-17.05.26-25.57 3.14-.05 6.29.11 9.42-.12 2.27-3.26.39-7.93 1.01-11.74-3.45-.59-6.96-.34-10.43-.36.39-3.08-1.24-7.81 2.12-9.57 2.83-.22 5.68-.01 8.49-.41.04-3.74.06-7.49-.07-11.23z"/></svg>