<svg width="61pt" height="59pt" viewBox="0 0 61 59" xmlns="http://www.w3.org/2000/svg"><path fill="#fff" d="M0 0h61v37.36c-.81-4.83-4.86-9.37-10.04-9.15-13.65-.02-27.31-.02-40.96 0-5.13-.2-9.19 4.29-10 9.09V0z"/><path fill="#241c18" d="M10.42.99c1.54.01 3.09.03 4.63.05.61 2.67 1.18 5.35 1.97 7.98 1.12-2.53 1.51-5.31 2.27-7.97C20.76.99 22.23.94 23.7.88c-1.2 4.46-3.02 8.73-4.22 13.19-.4 3.53-.09 7.09-.13 10.63-1.07.01-3.19.02-4.26.02-.02-3.19.3-6.4-.09-9.57-1.31-4.78-3.16-9.41-4.58-14.16zM26.34 7.29c1.63-1.03 3.85-.95 5.63-.38 3.48.95 3.1 5.29 3.26 8.12-.09 3.19.46 7.48-2.76 9.39-2.47.66-5.85.95-7.51-1.44-1.4-4.13-1.41-8.65-.53-12.89.18-1.25.81-2.18 1.91-2.8zM39.02 6.61c1.23.32 3.64-.77 4.1.85.25 4.93-.14 9.88.18 14.81l2.12-.52c.92-4.95.2-10.08.4-15.11 1.34.03 2.68.06 4.02.1-.27 6.03-.09 12.06-.11 18.09-1.59-.03-3.18-.23-4.56-1.08-1.66 1.22-5.23 1.9-5.82-.75-.61-5.43-.01-10.93-.33-16.39z"/><path fill="#fff" d="M28.41 9.22c.85.22 1.7.47 2.53.77.5 3.76.08 7.58.24 11.37-.96.21-1.92.39-2.88.56-.09-4.23-.2-8.47.11-12.7z"/><path fill="#241c18" d="M0 37.3c.81-4.8 4.87-9.29 10-9.09 13.65-.02 27.31-.02 40.96 0 5.18-.22 9.23 4.32 10.04 9.15v12.3c-1.17 5.4-6.1 8.65-11.32 9.34h-38.8C5.8 58.12 1.03 54.86 0 49.52V37.3z"/><path fill="#fff" d="M5.44 32.34c3.81-.16 7.64-.11 11.46-.08v2.61c-1.24.15-2.48.28-3.72.4.08 6.3.07 12.6.01 18.9l-3.77.08c-.1-6.29-.1-12.58.01-18.87-2.21-.01-4.32-.35-3.99-3.04zM31.26 32.27c1.16-.01 2.33-.02 3.5-.04-.02 2.14-.05 4.27-.13 6.41 1.81-.5 4.36-2.11 5.81-.07.6 3.77.17 7.63.31 11.44-.19 1.2.4 3.04-.99 3.7-1.31 1.25-2.99-.17-4.47-.14-1.25-.15-3.06 1.47-3.89.12-.27-7.13.04-14.28-.14-21.42zM17.61 37.58l3.63.08c.03 4.75-.13 9.51.1 14.25.81-.51 2.62-.55 2.26-1.97.08-4.14-.05-8.29.02-12.43.91.05 2.73.13 3.64.18-.09 5.15.12 10.31-.06 15.46-.58 2.07-2.93.68-4.15.12-1.69.86-4.08 1.85-5.24-.33-.5-5.09-.06-10.24-.2-15.36zM44.73 41.02c.38-3.99 6.01-4.48 8.53-2.25 1.8 2.14.84 5.16 1.08 7.71-2.05-.03-4.1-.05-6.15-.05.04 1.71.09 3.43.18 5.14.55-.02 1.65-.05 2.2-.06.03-.78.1-2.32.13-3.09.96-.01 2.88-.02 3.84-.02 1.24 5.58-6.91 8.19-9.51 3.55-.81-3.56-.51-7.31-.3-10.93z"/><path fill="#241c18" d="M48.32 40.23c.57-.01 1.69-.04 2.25-.05.07 1.21.13 2.43.18 3.65l-2.57.04c.04-1.21.09-2.42.14-3.64zM34.83 40.76c.58-.18 1.75-.55 2.33-.73-.03 3.67.22 7.37-.1 11.03-.42 1.41-2.64.24-2.28-.9-.16-3.13-.16-6.28.05-9.4z"/><path fill="#fff" d="M0 49.52c1.03 5.34 5.8 8.6 10.88 9.48H0v-9.48zM49.68 59c5.22-.69 10.15-3.94 11.32-9.34V59H49.68z"/></svg>