<svg xmlns="http://www.w3.org/2000/svg" version="1" width="306.667" height="396" viewBox="0 0 230.000000 297.000000"><path d="M20 .4c0 .2 5.2 17.4 11.5 38.2L43 76.3V126h19V74.5l11.4-37L84.7.5 75.2.2C70 .1 65.6.1 65.4.3c-.2.2-3 11.2-6.1 24.4C56.1 38 53.1 48.9 52.5 49c-.5.1-3.7-10.8-7-24.2L39.4.5 29.7.2C24.4.1 20 .1 20 .4zm78.3 32.2c-5.2 1.9-11.8 8.9-13.2 14-1.7 6.2-1.4 58.9.3 64.8 3 10 10.2 15.5 21.3 16.4 11.3.9 19.9-3.4 24.6-12.1 2.1-4 2.2-5.4 2.5-34.9.3-29.6.2-30.9-1.9-35.7-2.6-6.1-8.3-11.6-13.6-13-5.3-1.5-15-1.2-20 .5zm15.9 16.1c1.7 1.5 1.8 3.8 1.8 30.5 0 27.5-.1 28.9-2 30.8-1.1 1.1-3.3 2-5 2-1.7 0-3.9-.9-5-2-1.9-1.9-2-3.3-2-30.7 0-25.2.2-28.9 1.7-30.5 2-2.3 8-2.4 10.5-.1zM149 75.2c0 38.3.2 42.6 1.8 45.8 4.1 8.2 15.5 7.9 25.4-.9 2-1.7 3.8-3.1 4.2-3.1.3 0 .6 2 .6 4.5v4.5h17V33h-17v70.2l-2.9 2.8c-3.3 3.3-7.7 4.8-10 3.3-1.4-.9-1.6-5.5-1.9-38.7L166 33h-17v42.2zM47.5 143c-20 .8-23.1 1.4-29.9 5.4-8.9 5.2-14 13.4-15.8 25.3-1.7 10.7-1.7 81 0 91.7 2.1 13.7 9.4 23.3 21.1 27.6 4.8 1.9 9 2.3 29.1 3 30.2 1.2 95.8 1.2 126 0 20.1-.7 24.3-1.1 29.1-3 11.7-4.3 19-13.9 21.1-27.6 1.7-10.8 1.7-81 0-91.8-2.6-16.6-12.4-26.9-28.3-29.6-8-1.4-125.5-2.1-152.4-1zM66 174v8H50v87H34v-87H18v-16h48v8zm67 8c0 8.8.4 16 .9 16s1.4-.7 2.2-1.6c3.8-4.6 13.7-5.7 17.9-1.9 4.7 4.2 5 6.6 5 37 0 29.5-.1 30.7-4.3 35.2-3.9 4.3-14 3.9-18.2-.7-2.4-2.7-3.5-2.5-3.5.5 0 2.4-.2 2.5-7 2.5h-7V166h14v16zm68 11.2c3.2 1.6 5.2 3.6 7 6.8 2.3 4.1 2.5 5.8 2.8 18.7l.4 14.3h-27.5l.5 10.2c.5 9.1.8 10.3 2.8 12 1.6 1.3 3.2 1.7 4.9 1.3 3.4-.9 3.9-1.8 4.7-9.2l.6-6.3H211v5.8c0 12.4-4.9 20.7-13.7 23.1-12.3 3.4-23.1-2.2-26.3-13.8-.5-2-1-13.7-1-26.1 0-24.8.7-28 6.7-33.6 6.2-5.9 16.4-7.2 24.3-3.2zM80.2 223.7l.3 30.8 2.6.3c1.7.2 3.7-.6 5.8-2.3l3.1-2.7V193h14v76H92v-8.2l-3.7 3.2c-6.2 5.5-12.9 7.4-17.5 4.9-4.4-2.4-4.8-5.7-4.8-41.9v-34h14l.2 30.7z" fill="#241c18" stroke="#241c18"/><path d="M134.7 206.8c-1.5 1.6-1.7 4.8-1.7 23.8 0 12 .4 22.4.8 23 .9 1.5 4.7 3.4 6.6 3.4.8 0 2.2-.7 3-1.6 2.4-2.3 2.4-44.9 0-48.2-1.9-2.7-6.4-2.9-8.7-.4zm52.5-1c-1.5 1-3.2 6.6-3.2 10.9v3.3h13v-3.3c0-4.3-1.7-9.9-3.2-10.9-.7-.4-2.2-.8-3.3-.8-1.1 0-2.6.4-3.3.8z" fill="#241c18"/></svg>
